<svg id="icon-edit" viewBox="0 0 1024 1024">
    <path d="M938.666667 874.666667a42.666667 42.666667 0 1 1 0 85.333333H85.333333a42.666667 42.666667 0 1 1 0-85.333333h853.333334zM768.149333 104.405333l96.533334 96.554667c40 39.978667 41.813333 103.018667 4.032 140.8L448.213333 762.197333a30.762667 30.762667 0 0 1-12.458666 7.552L189.312 827.477333c-17.173333 5.461333-36.309333-4.309333-42.752-21.824a33.28 33.28 0 0 1-0.789333-20.992l53.589333-251.008c1.493333-4.949333 4.138667-9.408 7.744-13.013333l420.266667-420.266667c37.76-37.76 100.778667-35.946667 140.778666 4.053334z m-80.448 56.32L278.997333 569.429333l-33.578666 157.269334 153.621333-35.968L808.362667 281.386667c3.648-3.648 3.413333-12.714667-4.010667-20.117334l-96.554667-96.533333c-7.402667-7.424-16.448-7.68-20.096-4.032z"></path>
</svg>
